<svg width="24" height="24" viewBox="0 0 24 24" fill="none" xmlns="http://www.w3.org/2000/svg">
<path d="M23.9983 11.9991C23.9983 5.37175 18.6265 0 11.9991 0C5.37175 0 0 5.37175 0 11.9991C0 17.9884 4.38789 22.9525 10.1243 23.8521V15.4668H7.07807V11.9974H10.1243V9.35368C10.1243 6.34702 11.9148 4.68544 14.6566 4.68544C15.969 4.68544 17.3434 4.91937 17.3434 4.91937V7.87271H15.8297C14.3384 7.87271 13.874 8.7981 13.874 9.74586V11.9974H17.2023L16.6708 15.4668H13.8757V23.8521C19.6121 22.9525 24 17.9884 24 11.9991H23.9983Z" fill="#36B5A5"/>
<path d="M16.6689 15.4683L17.2004 11.999H13.8721V9.74743C13.8721 8.79795 14.3365 7.87428 15.8278 7.87428H17.3415V4.92094C17.3415 4.92094 15.9688 4.68701 14.6547 4.68701C11.9129 4.68701 10.1224 6.34859 10.1224 9.35525V11.999H7.07617V15.4683H10.1224V23.8536C10.733 23.95 11.3591 23.9998 11.9972 23.9998C12.6354 23.9998 13.2615 23.95 13.8721 23.8536V15.4683H16.6672H16.6689Z" fill="white"/>
</svg>
