<svg width="24" height="24" viewBox="0 0 24 24" fill="none" xmlns="http://www.w3.org/2000/svg">
<path d="M12 24C18.6274 24 24 18.6274 24 12C24 5.37258 18.6274 0 12 0C5.37258 0 0 5.37258 0 12C0 18.6274 5.37258 24 12 24Z" fill="#36B5A5"/>
<path d="M18.6301 7.88874C18.2138 8.07624 17.7546 8.19149 17.3073 8.26546C17.5206 8.22934 17.832 7.84402 17.9576 7.6892C18.1485 7.45181 18.3067 7.18002 18.3962 6.88759C18.4082 6.86523 18.4168 6.83599 18.3927 6.81879C18.3635 6.80674 18.3446 6.81363 18.3222 6.82395C17.8216 7.09229 17.3039 7.28667 16.7534 7.42429C16.707 7.43633 16.6743 7.42429 16.645 7.39505C16.5986 7.34344 16.5556 7.29528 16.5074 7.25399C16.2752 7.05617 16.0275 6.90307 15.7471 6.78782C15.379 6.63816 14.9782 6.57452 14.5808 6.60032C14.1955 6.62612 13.8171 6.73449 13.4747 6.91339C13.1324 7.09229 12.8262 7.34172 12.582 7.64275C12.3308 7.9541 12.1433 8.3205 12.0487 8.70927C11.9575 9.08427 11.9644 9.45582 12.0212 9.83598C12.0298 9.89963 12.0246 9.90824 11.9661 9.89964C9.81075 9.57968 8.02346 8.80732 6.57335 7.15422C6.5097 7.08197 6.47704 7.08197 6.42544 7.15938C5.79069 8.11064 6.0986 9.63988 6.8916 10.3899C6.99653 10.4897 7.10661 10.5894 7.22358 10.6823C7.18058 10.6909 6.65248 10.6342 6.18287 10.3899C6.11922 10.3503 6.08828 10.3727 6.08312 10.4449C6.07796 10.5481 6.08654 10.6428 6.1003 10.7546C6.22243 11.7196 6.88989 12.6106 7.80503 12.9581C7.9134 13.0046 8.03381 13.0441 8.15079 13.0631C7.94264 13.1095 7.72759 13.1422 7.13069 13.094C7.05672 13.0803 7.02749 13.1164 7.05673 13.1886C7.5057 14.4134 8.47588 14.7764 9.2018 14.9845C9.29813 15.0017 9.39617 15.0017 9.49422 15.0241C9.48906 15.0327 9.4822 15.0327 9.47704 15.0413C9.23622 15.4077 8.40193 15.6812 8.01316 15.8171C7.30617 16.0648 6.53554 16.1749 5.78898 16.1009C5.67029 16.0837 5.64448 16.0854 5.61179 16.1009C5.57911 16.1215 5.60835 16.1491 5.64619 16.18C5.79757 16.2798 5.95237 16.3692 6.10891 16.4553C6.58368 16.7064 7.07912 16.9077 7.59517 17.0504C10.2666 17.7884 13.2769 17.2465 15.2827 15.2528C16.8583 13.6875 17.4105 11.5286 17.4105 9.36809C17.4105 9.28381 17.5103 9.23736 17.5705 9.19264C17.9799 8.88472 18.3102 8.5166 18.6164 8.10548C18.6852 8.01259 18.6852 7.93002 18.6852 7.89734V7.8853C18.6852 7.85089 18.6852 7.86121 18.6319 7.8853L18.6301 7.88874Z" fill="white"/>
</svg>
