<svg width="24" height="24" viewBox="0 0 24 24" fill="none" xmlns="http://www.w3.org/2000/svg">
<path d="M12 24C18.6274 24 24 18.6274 24 12C24 5.37258 18.6274 0 12 0C5.37258 0 0 5.37258 0 12C0 18.6274 5.37258 24 12 24Z" fill="#36B5A5"/>
<path d="M15.7246 7.46045C15.2687 7.46045 14.8989 7.83029 14.8989 8.28614C14.8989 8.74198 15.2687 9.11183 15.7246 9.11183C16.1804 9.11183 16.5503 8.74198 16.5503 8.28614C16.5503 7.83029 16.1804 7.46045 15.7246 7.46045Z" fill="white"/>
<path d="M12.0572 8.51855C10.1461 8.51855 8.59277 10.0736 8.59277 11.983C8.59277 13.8924 10.1478 15.4475 12.0572 15.4475C13.9666 15.4475 15.5217 13.8924 15.5217 11.983C15.5217 10.0736 13.9666 8.51855 12.0572 8.51855ZM12.0572 14.2038C10.8325 14.2038 9.83818 13.2078 9.83818 11.9847C9.83818 10.7617 10.8342 9.76569 12.0572 9.76569C13.2803 9.76569 14.2763 10.7617 14.2763 11.9847C14.2763 13.2078 13.2803 14.2038 12.0572 14.2038Z" fill="white"/>
<path d="M14.8075 19.0184H9.18935C6.8585 19.0184 4.96289 17.1227 4.96289 14.7919V9.17376C4.96289 6.84291 6.8585 4.94727 9.18935 4.94727H14.8075C17.1383 4.94727 19.034 6.84291 19.034 9.17376V14.7919C19.034 17.1227 17.1383 19.0184 14.8075 19.0184ZM9.18935 6.27181C7.58958 6.27181 6.28742 7.57398 6.28742 9.17376V14.7919C6.28742 16.3916 7.58958 17.6938 9.18935 17.6938H14.8075C16.4073 17.6938 17.7094 16.3916 17.7094 14.7919V9.17376C17.7094 7.57226 16.4073 6.27181 14.8075 6.27181H9.18935Z" fill="white"/>
</svg>
