<svg width="150" height="29" viewBox="0 0 150 29" fill="none" xmlns="http://www.w3.org/2000/svg">
<path d="M0.275568 28V1.81818H10.6051C12.5909 1.81818 14.2827 2.19744 15.6804 2.95597C17.0781 3.70597 18.1435 4.75 18.8764 6.08807C19.6179 7.41761 19.9886 8.9517 19.9886 10.6903C19.9886 12.429 19.6136 13.9631 18.8636 15.2926C18.1136 16.6222 17.027 17.6577 15.6037 18.3991C14.1889 19.1406 12.4759 19.5114 10.4645 19.5114H3.88068V15.0753H9.5696C10.6349 15.0753 11.5128 14.892 12.2031 14.5256C12.902 14.1506 13.4219 13.6349 13.7628 12.9787C14.1122 12.3139 14.2869 11.5511 14.2869 10.6903C14.2869 9.82102 14.1122 9.0625 13.7628 8.41477C13.4219 7.75852 12.902 7.25142 12.2031 6.89347C11.5043 6.52699 10.6179 6.34375 9.54403 6.34375H5.81108V28H0.275568ZM32.0376 28.3835C30.0518 28.3835 28.3345 27.9616 26.8857 27.1179C25.4453 26.2656 24.3331 25.081 23.549 23.5639C22.7649 22.0384 22.3729 20.2699 22.3729 18.2585C22.3729 16.2301 22.7649 14.4574 23.549 12.9403C24.3331 11.4148 25.4453 10.2301 26.8857 9.38636C28.3345 8.53409 30.0518 8.10795 32.0376 8.10795C34.0234 8.10795 35.7365 8.53409 37.1768 9.38636C38.6257 10.2301 39.7422 11.4148 40.5263 12.9403C41.3104 14.4574 41.7024 16.2301 41.7024 18.2585C41.7024 20.2699 41.3104 22.0384 40.5263 23.5639C39.7422 25.081 38.6257 26.2656 37.1768 27.1179C35.7365 27.9616 34.0234 28.3835 32.0376 28.3835ZM32.0632 24.1648C32.9666 24.1648 33.7209 23.9091 34.326 23.3977C34.9311 22.8778 35.3871 22.1705 35.6939 21.2756C36.0092 20.3807 36.1669 19.3622 36.1669 18.2202C36.1669 17.0781 36.0092 16.0597 35.6939 15.1648C35.3871 14.2699 34.9311 13.5625 34.326 13.0426C33.7209 12.5227 32.9666 12.2628 32.0632 12.2628C31.1513 12.2628 30.3842 12.5227 29.7621 13.0426C29.1484 13.5625 28.6839 14.2699 28.3686 15.1648C28.0618 16.0597 27.9084 17.0781 27.9084 18.2202C27.9084 19.3622 28.0618 20.3807 28.3686 21.2756C28.6839 22.1705 29.1484 22.8778 29.7621 23.3977C30.3842 23.9091 31.1513 24.1648 32.0632 24.1648ZM50.6896 1.81818V28H45.2436V1.81818H50.6896ZM55.0522 28V8.36364H60.4982V28H55.0522ZM57.788 5.83239C56.9783 5.83239 56.2837 5.56392 55.7042 5.02699C55.1332 4.48153 54.8477 3.82954 54.8477 3.07102C54.8477 2.32102 55.1332 1.67756 55.7042 1.14062C56.2837 0.59517 56.9783 0.322442 57.788 0.322442C58.5977 0.322442 59.288 0.59517 59.859 1.14062C60.4386 1.67756 60.7283 2.32102 60.7283 3.07102C60.7283 3.82954 60.4386 4.48153 59.859 5.02699C59.288 5.56392 58.5977 5.83239 57.788 5.83239ZM70.3068 1.81818V28H64.8608V1.81818H70.3068ZM83.6183 28.3835C81.5984 28.3835 79.8597 27.9744 78.4023 27.1562C76.9535 26.3295 75.837 25.1619 75.0529 23.6534C74.2688 22.1364 73.8768 20.3423 73.8768 18.2713C73.8768 16.2514 74.2688 14.4787 75.0529 12.9531C75.837 11.4276 76.9407 10.2386 78.364 9.38636C79.7958 8.53409 81.4748 8.10795 83.4009 8.10795C84.6964 8.10795 85.9023 8.31676 87.0188 8.73438C88.1438 9.14347 89.1239 9.76136 89.9592 10.5881C90.8029 11.4148 91.4592 12.4545 91.9279 13.7074C92.3967 14.9517 92.631 16.4091 92.631 18.0795V19.5753H76.0501V16.2003H87.5046C87.5046 15.4162 87.3342 14.7216 86.9933 14.1165C86.6523 13.5114 86.1793 13.0384 85.5742 12.6974C84.9776 12.348 84.283 12.1733 83.4904 12.1733C82.6637 12.1733 81.9308 12.3651 81.2915 12.7486C80.6609 13.1236 80.1665 13.6307 79.8086 14.2699C79.4506 14.9006 79.2674 15.6037 79.2589 16.3793V19.5881C79.2589 20.5597 79.4379 21.3991 79.7958 22.1065C80.1623 22.8139 80.6779 23.3594 81.3427 23.7429C82.0075 24.1264 82.7958 24.3182 83.7077 24.3182C84.3129 24.3182 84.8668 24.233 85.3697 24.0625C85.8725 23.892 86.3029 23.6364 86.6609 23.2955C87.0188 22.9545 87.2915 22.5369 87.479 22.0426L92.516 22.375C92.2603 23.5852 91.7362 24.642 90.9435 25.5455C90.1594 26.4403 89.1452 27.1392 87.9009 27.642C86.6651 28.1364 85.2376 28.3835 83.6183 28.3835ZM101.784 28.3707C100.532 28.3707 99.4151 28.1534 98.435 27.7188C97.4549 27.2756 96.6793 26.6236 96.1083 25.7628C95.5458 24.8935 95.2646 23.8111 95.2646 22.5156C95.2646 21.4247 95.4648 20.5085 95.8654 19.767C96.266 19.0256 96.8114 18.429 97.5018 17.9773C98.1921 17.5256 98.9762 17.1847 99.854 16.9545C100.74 16.7244 101.669 16.5625 102.641 16.4688C103.783 16.3494 104.703 16.2386 105.402 16.1364C106.101 16.0256 106.608 15.8636 106.924 15.6506C107.239 15.4375 107.397 15.1222 107.397 14.7045V14.6278C107.397 13.8182 107.141 13.1918 106.63 12.7486C106.127 12.3054 105.411 12.0838 104.482 12.0838C103.502 12.0838 102.722 12.3011 102.142 12.7358C101.563 13.1619 101.179 13.6989 100.992 14.3466L95.9549 13.9375C96.2106 12.7443 96.7134 11.7131 97.4634 10.8438C98.2134 9.96591 99.1808 9.29261 100.365 8.82386C101.559 8.34659 102.939 8.10795 104.507 8.10795C105.598 8.10795 106.642 8.2358 107.64 8.49148C108.645 8.74716 109.536 9.14347 110.311 9.6804C111.096 10.2173 111.713 10.9077 112.165 11.7514C112.617 12.5866 112.843 13.5881 112.843 14.7557V28H107.678V25.277H107.525C107.209 25.8906 106.787 26.4318 106.259 26.9006C105.73 27.3608 105.096 27.723 104.354 27.9872C103.613 28.2429 102.756 28.3707 101.784 28.3707ZM103.344 24.6122C104.145 24.6122 104.853 24.4545 105.466 24.1392C106.08 23.8153 106.561 23.3807 106.911 22.8352C107.26 22.2898 107.435 21.6719 107.435 20.9815V18.8977C107.265 19.0085 107.03 19.1108 106.732 19.2045C106.442 19.2898 106.114 19.3707 105.748 19.4474C105.381 19.5156 105.015 19.5795 104.648 19.6392C104.282 19.6903 103.949 19.7372 103.651 19.7798C103.012 19.8736 102.453 20.0227 101.976 20.2273C101.499 20.4318 101.128 20.7088 100.864 21.0582C100.6 21.3991 100.468 21.8253 100.468 22.3366C100.468 23.0781 100.736 23.6449 101.273 24.0369C101.819 24.4205 102.509 24.6122 103.344 24.6122ZM117.068 28V8.36364H122.348V11.7898H122.552C122.91 10.571 123.511 9.65057 124.355 9.02841C125.199 8.39773 126.17 8.08239 127.27 8.08239C127.542 8.08239 127.836 8.09943 128.152 8.13352C128.467 8.16761 128.744 8.21449 128.983 8.27415V13.1065C128.727 13.0298 128.373 12.9616 127.922 12.902C127.47 12.8423 127.056 12.8125 126.681 12.8125C125.88 12.8125 125.164 12.9872 124.534 13.3366C123.912 13.6776 123.417 14.1548 123.051 14.7685C122.693 15.3821 122.514 16.0895 122.514 16.8906V28H117.068ZM137.244 16.6477V28H131.798V8.36364H136.989V11.8281H137.219C137.653 10.6861 138.382 9.78267 139.405 9.1179C140.428 8.4446 141.668 8.10795 143.125 8.10795C144.489 8.10795 145.678 8.40625 146.692 9.00284C147.706 9.59943 148.494 10.4517 149.057 11.5597C149.619 12.6591 149.901 13.9716 149.901 15.4972V28H144.455V16.4688C144.463 15.267 144.156 14.3295 143.534 13.6562C142.912 12.9744 142.055 12.6335 140.964 12.6335C140.232 12.6335 139.584 12.7912 139.021 13.1065C138.467 13.4219 138.033 13.8821 137.717 14.4872C137.411 15.0838 137.253 15.804 137.244 16.6477Z" fill="white"/>
</svg>
